<svg width="34" height="34" viewBox="0 0 34 34" fill="none" xmlns="http://www.w3.org/2000/svg">
<path d="M9.91663 21.25H12.75C12.75 22.78 14.6908 24.0833 17 24.0833C19.3091 24.0833 21.25 22.78 21.25 21.25C21.25 19.6917 19.7766 19.125 16.66 18.3742C13.6566 17.6233 9.91663 16.6883 9.91663 12.75C9.91663 10.2142 11.9991 8.06083 14.875 7.33833V4.25H19.125V7.33833C22.0008 8.06083 24.0833 10.2142 24.0833 12.75H21.25C21.25 11.22 19.3091 9.91667 17 9.91667C14.6908 9.91667 12.75 11.22 12.75 12.75C12.75 14.3083 14.2233 14.875 17.34 15.6258C20.3433 16.3767 24.0833 17.3117 24.0833 21.25C24.0833 23.7858 22.0008 25.9392 19.125 26.6617V29.75H14.875V26.6617C11.9991 25.9392 9.91663 23.7858 9.91663 21.25Z" fill="url(#paint0_linear_3623_4413)"/>
<defs>
<linearGradient id="paint0_linear_3623_4413" x1="17" y1="4.25" x2="17" y2="29.75" gradientUnits="userSpaceOnUse">
<stop stop-color="#439DEE"/>
<stop offset="1" stop-color="#1E78E9"/>
</linearGradient>
</defs>
</svg>
