<svg width="34" height="34" viewBox="0 0 34 34" fill="none" xmlns="http://www.w3.org/2000/svg">
<path d="M17 26.9167C18.5583 26.9167 19.8333 28.1917 19.8333 29.75C19.8333 31.3083 18.5583 32.5833 17 32.5833C15.4416 32.5833 14.1666 31.3083 14.1666 29.75C14.1666 28.1917 15.4416 26.9167 17 26.9167ZM17 1.41666C18.5583 1.41666 19.8333 2.69166 19.8333 4.24999C19.8333 5.80832 18.5583 7.08332 17 7.08332C15.4416 7.08332 14.1666 5.80832 14.1666 4.24999C14.1666 2.69166 15.4416 1.41666 17 1.41666ZM8.49996 22.6667C10.0583 22.6667 11.3333 23.9417 11.3333 25.5C11.3333 27.0583 10.0583 28.3333 8.49996 28.3333C6.94163 28.3333 5.66663 27.0583 5.66663 25.5C5.66663 23.9417 6.94163 22.6667 8.49996 22.6667ZM4.24996 14.1667C5.80829 14.1667 7.08329 15.4417 7.08329 17C7.08329 18.5583 5.80829 19.8333 4.24996 19.8333C2.69163 19.8333 1.41663 18.5583 1.41663 17C1.41663 15.4417 2.69163 14.1667 4.24996 14.1667ZM8.49996 5.66666C10.0583 5.66666 11.3333 6.94166 11.3333 8.49999C11.3333 10.0583 10.0583 11.3333 8.49996 11.3333C6.94163 11.3333 5.66663 10.0583 5.66663 8.49999C5.66663 6.94166 6.94163 5.66666 8.49996 5.66666ZM25.5 22.6667C27.0583 22.6667 28.3333 23.9417 28.3333 25.5C28.3333 27.0583 27.0583 28.3333 25.5 28.3333C23.9416 28.3333 22.6666 27.0583 22.6666 25.5C22.6666 23.9417 23.9416 22.6667 25.5 22.6667ZM29.75 14.1667C31.3083 14.1667 32.5833 15.4417 32.5833 17C32.5833 18.5583 31.3083 19.8333 29.75 19.8333C28.1916 19.8333 26.9166 18.5583 26.9166 17C26.9166 15.4417 28.1916 14.1667 29.75 14.1667ZM25.5 5.66666C27.0583 5.66666 28.3333 6.94166 28.3333 8.49999C28.3333 10.0583 27.0583 11.3333 25.5 11.3333C23.9416 11.3333 22.6666 10.0583 22.6666 8.49999C22.6666 6.94166 23.9416 5.66666 25.5 5.66666Z" fill="url(#paint0_linear_3623_4404)"/>
<defs>
<linearGradient id="paint0_linear_3623_4404" x1="17" y1="1.41666" x2="17" y2="32.5833" gradientUnits="userSpaceOnUse">
<stop stop-color="#439DEE"/>
<stop offset="1" stop-color="#1E78E9"/>
</linearGradient>
</defs>
</svg>
