<svg width="31" height="30" viewBox="0 0 31 30" fill="none" xmlns="http://www.w3.org/2000/svg">
<path d="M24.453 22.6358C24.0688 21.5025 22.9604 20.6667 21.6451 20.6667H20.1673V16.4167C20.1673 16.041 20.0116 15.6806 19.7345 15.4149C19.4573 15.1493 19.0814 15 18.6895 15H9.8226V12.1667H12.7782C13.1702 12.1667 13.5461 12.0174 13.8232 11.7517C14.1003 11.4861 14.256 11.1257 14.256 10.75V7.91668H17.2117C17.9956 7.91668 18.7473 7.61817 19.3016 7.08681C19.8559 6.55546 20.1673 5.83479 20.1673 5.08334V4.50251C24.4973 6.17418 27.5564 10.24 27.5564 15C27.5564 17.9467 26.3742 20.6242 24.453 22.6358ZM14.256 26.2342C8.41867 25.54 3.91132 20.78 3.91132 15C3.91132 14.1217 4.02955 13.2717 4.22167 12.4642L11.3004 19.25V20.6667C11.3004 21.4181 11.6118 22.1388 12.1661 22.6701C12.7204 23.2015 13.4722 23.5 14.256 23.5V26.2342ZM15.7339 0.833344C13.7932 0.833344 11.8715 1.19978 10.0785 1.91172C8.28553 2.62366 6.6564 3.66717 5.28412 4.98266C2.51267 7.63943 0.955688 11.2428 0.955688 15C0.955688 18.7572 2.51267 22.3606 5.28412 25.0174C6.6564 26.3329 8.28553 27.3764 10.0785 28.0883C11.8715 28.8002 13.7932 29.1667 15.7339 29.1667C19.6533 29.1667 23.4122 27.6741 26.1836 25.0174C28.9551 22.3606 30.512 18.7572 30.512 15C30.512 13.1396 30.1298 11.2974 29.3871 9.57866C28.6445 7.85988 27.5559 6.29816 26.1836 4.98266C24.8113 3.66717 23.1822 2.62366 21.3892 1.91172C19.5963 1.19978 17.6746 0.833344 15.7339 0.833344V0.833344Z" fill="url(#paint0_linear_3623_4473)"/>
<defs>
<linearGradient id="paint0_linear_3623_4473" x1="15.7339" y1="0.833344" x2="15.7339" y2="29.1667" gradientUnits="userSpaceOnUse">
<stop stop-color="#439DEE"/>
<stop offset="1" stop-color="#1E78E9"/>
</linearGradient>
</defs>
</svg>
